<svg width="92" height="61" viewBox="0 0 92 61" fill="none" xmlns="http://www.w3.org/2000/svg">
<path d="M0.960957 50C0.960957 47.45 1.15929 45.155 1.55596 43.115C1.95262 41.075 2.63262 39.1767 3.59596 37.42C4.61596 35.6633 5.97596 34.02 7.67596 32.49C9.43262 30.9033 11.6426 29.3733 14.306 27.9C16.6293 26.6533 18.6693 25.5767 20.426 24.67C22.1826 23.7067 23.656 22.8283 24.846 22.035C26.0926 21.2417 27.0276 20.4483 27.651 19.655C28.2743 18.805 28.586 17.8417 28.586 16.765C28.586 15.6317 28.2743 14.6117 27.651 13.705C27.0276 12.7417 26.1493 11.9767 25.016 11.41C23.8826 10.8433 22.466 10.56 20.766 10.56C19.406 10.56 18.131 10.73 16.941 11.07C15.8076 11.41 14.731 11.8917 13.711 12.515C12.7476 13.1383 11.841 13.8467 10.991 14.64C10.141 15.3767 9.37596 16.17 8.69596 17.02L1.47096 8.69C2.26429 7.89667 3.31262 7.04667 4.61596 6.14C5.97596 5.17666 7.56262 4.29833 9.37596 3.505C11.246 2.655 13.286 1.975 15.496 1.465C17.7626 0.898331 20.171 0.614997 22.721 0.614997C26.5743 0.614997 29.861 1.23833 32.581 2.485C35.301 3.675 37.3693 5.34666 38.786 7.5C40.2593 9.65333 40.996 12.175 40.996 15.065C40.996 17.0483 40.6276 18.805 39.891 20.335C39.1543 21.865 38.2193 23.225 37.086 24.415C35.9526 25.5483 34.706 26.5683 33.346 27.475C32.0426 28.3817 30.7676 29.175 29.521 29.855C27.7643 30.7617 26.1776 31.6117 24.761 32.405C23.3443 33.1417 22.0976 33.9067 21.021 34.7C19.9443 35.4367 18.981 36.2017 18.131 36.995C17.3376 37.7883 16.6293 38.695 16.006 39.715H41.931V50H0.960957ZM72.2295 60.795V48.13H47.4095V38.015L75.8845 1.465H83.6195V37.93H91.0995V48.13H83.6195V60.795H72.2295ZM58.7995 37.93H73.5045V18.72L58.7995 37.93Z" fill="#6C8573"/>
</svg>
