<svg width="201" height="54" viewBox="0 0 201 54" fill="none" xmlns="http://www.w3.org/2000/svg">
<path d="M1.44141 37V12.3906H4.5V37H1.44141ZM6.01172 25.0117L13.2188 12.3906H16.4531L9.24609 25.0117L16.5938 37H13.3945L6.01172 25.0117ZM18.3164 37L22.9922 16.2227H23.5547L24.75 21.6719L21.3398 37H18.3164ZM23.9414 33.0625L24.6094 30.0742H28.3711L24.4688 12.4258H27.5273L33.082 37H30.0234L29.1445 33.0625H23.9414ZM35.4375 37V19.4219H35.7539L38.4961 26.1016V37H35.4375ZM35.4375 14.3242V12.3906H37.9336L46.0195 31.9727L51.7852 18.9297H52.1367V25.75L47.1797 37H44.8594L35.4375 14.3242ZM53.8945 37V12.3906H56.9531V37H53.8945ZM59.9062 37V12.3906H62.9648V37H59.9062ZM74.3203 36.9648V12.3906H87.1172V15.4141H77.3789V23.2188H83.8125V26.2773H77.3789V36.9648H74.3203ZM89.7188 37V12.3906H92.7773V33.9766H102.938V37H89.7188ZM104.941 30.1445V18.5781C104.941 17.3359 105.469 16.0703 106.523 14.7812C107.93 13.0938 109.711 12.2383 111.867 12.2148V15.2734C110.438 15.2734 109.324 16 108.527 17.4531C108.199 18.0859 108.035 18.6484 108.035 19.1406V30.1445C108.035 31.6211 108.762 32.7695 110.215 33.5898C110.824 33.9414 111.363 34.1172 111.832 34.1172V37.1758C110.496 37.1758 109.16 36.6953 107.824 35.7344C105.926 34.3281 104.965 32.4648 104.941 30.1445ZM113.766 37.1758V34.1172C114.586 34.1172 115.418 33.7539 116.262 33.0273C117.152 32.2305 117.609 31.2695 117.633 30.1445V19.1406C117.633 18.2266 117.258 17.3477 116.508 16.5039C115.734 15.707 114.82 15.2969 113.766 15.2734V12.2148C116.133 12.2148 118.031 13.2344 119.461 15.2734C120.281 16.4453 120.691 17.5469 120.691 18.5781V30.1445C120.691 32.7461 119.531 34.7383 117.211 36.1211C115.992 36.8242 114.844 37.1758 113.766 37.1758ZM122.414 12.3906H125.508L131.695 33.5547L130.605 37H129.551L122.414 12.3906ZM130.852 25.1172L134.332 12.3906H137.426L143.262 33.6953L142.172 37H141.117L135.879 17.9453C134.027 24.625 132.914 28.5742 132.539 29.793H132.188L130.852 25.1172ZM142.699 25.1172L146.461 12.3906H149.555L144.422 29.793H144.07L142.699 25.1172ZM151.348 37V12.3906H164.145V15.4141H154.406V23.2188H160.84V26.2773H154.406V33.9766H164.145V37H151.348ZM166.992 37V12.3906H170.051V37H166.992ZM171.809 26.3477V23.5703H175.008C177.492 23.5234 178.746 22.1406 178.77 19.4219C178.723 16.6328 177.305 15.2266 174.516 15.2031H171.809V12.3906H175.078C178.477 12.5078 180.574 13.9258 181.371 16.6445C181.605 17.418 181.723 18.2617 181.723 19.1758C181.699 21.8945 180.891 23.8047 179.297 24.9062C180.656 25.6328 181.477 26.957 181.758 28.8789C181.781 29.043 181.805 29.207 181.828 29.3711L182.426 37H179.543L179.016 30.7422C178.828 28.7266 178.312 27.4375 177.469 26.875C176.906 26.5 176.145 26.3242 175.184 26.3477H171.809ZM184.219 31.4453L187.031 30.4609C187.172 31.4453 187.547 32.2539 188.156 32.8867C188.789 33.5195 189.387 33.9062 189.949 34.0469L190.758 34.2578V37.1055C188.695 37.1055 186.961 36.2266 185.555 34.4688C184.688 33.3672 184.242 32.3594 184.219 31.4453ZM184.5 19.0352C184.5 16.5039 185.59 14.6055 187.77 13.3398C188.848 12.707 189.844 12.3906 190.758 12.3906V15.2734C189.938 15.3672 189.164 15.8008 188.438 16.5742C187.781 17.3008 187.453 18.1328 187.453 19.0703C187.453 20.5 188.484 21.5781 190.547 22.3047C191.062 22.4688 191.848 22.6914 192.902 22.9727C194.004 23.2773 194.777 23.5117 195.223 23.6758C197.332 24.543 198.68 25.7266 199.266 27.2266C199.57 27.9766 199.723 28.8203 199.723 29.7578C199.723 31.7969 198.938 33.5664 197.367 35.0664C195.938 36.4258 194.32 37.1055 192.516 37.1055V34.2578C193.477 34.2109 194.402 33.7539 195.293 32.8867C196.184 31.9727 196.641 30.9297 196.664 29.7578C196.664 28.1172 195.527 26.9219 193.254 26.1719C192.762 26.0078 192.012 25.8086 191.004 25.5742C189.926 25.3164 189.199 25.1055 188.824 24.9414C186.832 24.1211 185.555 23.043 184.992 21.707C184.664 20.9336 184.5 20.043 184.5 19.0352ZM192.516 15.2734V12.3906C194.555 12.3906 196.254 13.293 197.613 15.0977C198.293 16.0117 198.668 16.832 198.738 17.5586L195.891 18.5078C195.562 16.8672 194.625 15.8242 193.078 15.3789C192.703 15.3086 192.516 15.2734 192.516 15.2734Z" fill="white"/>
</svg>
