<svg width="66" height="60" viewBox="0 0 66 60" fill="none" xmlns="http://www.w3.org/2000/svg">
<g clip-path="url(#clip0_39_935)">
<path d="M28.6666 25.0689C28.6365 25.3729 28.6004 25.6648 28.5703 25.8411C28.5703 25.8411 28.7689 26.1269 28.9675 26.1634C28.9675 26.1634 28.6786 25.604 28.9796 25.2878C28.8773 25.2209 28.7689 25.148 28.6666 25.075V25.0689Z" fill="#6C8573"/>
<path d="M30.123 25.8472C30.2253 26.2241 30.0327 26.516 29.6355 26.5221C29.1841 26.5221 29.3707 26.6376 29.6656 26.82C29.9605 26.9963 30.5925 26.8991 30.5925 26.8991C30.5925 26.8991 30.6707 26.5038 30.755 25.9992C30.5443 25.9688 30.3337 25.9141 30.123 25.8472Z" fill="#6C8573"/>
<path d="M29.9065 40.3182C29.9065 40.2817 29.9186 40.2452 29.9306 40.2088C30.1533 39.6311 30.6529 39.0961 30.6529 39.0961C30.6529 39.0961 30.6709 36.8585 30.4603 35.9526C30.4603 35.9526 30.1954 36.0681 29.9607 35.9891C29.9607 35.9891 29.738 36.3235 29.5876 37.2051C29.4371 38.0928 29.7621 39.0596 29.5996 39.7771C29.5996 39.7771 29.8403 40.0324 29.9065 40.3182Z" fill="#6C8573"/>
<path d="M27.1619 22.5335C27.1739 22.047 27.204 21.6579 27.204 21.6579C27.204 21.6579 26.5781 21.5059 26.3012 20.9587C26.0304 20.4115 26.3494 19.9737 26.7948 19.7609C27.2401 19.5481 28.0827 19.8642 28.2151 20.5087C28.3476 21.1532 28.1369 21.4451 27.6915 21.6579C27.6915 21.6579 27.529 22.1261 27.4929 22.8557C27.8119 23.1658 28.155 23.4881 28.498 23.7982C28.504 23.7799 28.5101 23.7617 28.5161 23.7495C28.5161 23.7495 27.8841 23.3908 28.0767 22.7159C28.2753 22.047 28.9554 22.1261 29.2142 22.5456C29.467 22.9652 29.8763 23.2023 29.6897 23.5854C29.5031 23.9623 28.7749 23.9198 28.7749 23.9198C28.7749 23.9198 28.7749 23.9623 28.7628 24.0353C29.5753 24.7588 30.3638 25.4155 30.7911 25.7621C30.8754 25.2757 30.9536 24.7345 30.9837 24.3515C31.0499 23.4881 30.9596 22.3571 30.9596 22.3571C30.9596 22.3571 29.8703 22.2842 29.5513 21.7734C29.2323 21.2566 29.1179 20.7398 29.6476 20.2534C30.1772 19.767 30.7911 19.7548 31.3147 20.0527C31.8323 20.3507 32.1754 20.7459 32.043 21.2627C31.9166 21.7795 31.3809 22.2659 31.3809 22.2659C31.3809 22.2659 31.4893 23.9867 31.3448 24.8318C31.2004 25.677 31.1823 26.2546 31.1823 26.2546C31.1823 26.2546 31.4592 25.3486 31.6638 24.6433C31.8684 23.9319 32.0791 23.4333 32.0791 23.4333C32.0791 23.4333 31.6758 23.1537 31.9707 22.6672C32.2596 22.1808 32.5666 22.0288 33.0481 22.3207C33.5296 22.6125 33.6439 23.1293 33.337 23.4881C33.03 23.8468 32.4883 23.6705 32.4883 23.6705C32.4883 23.6705 32.1212 24.6433 31.8624 25.4277C31.6036 26.212 31.4953 27.1058 31.4953 27.1058C31.4953 27.1058 32.1393 26.2242 32.7471 25.5067C33.361 24.7892 33.6198 24.1447 34.1194 23.6097C34.6189 23.0746 35.5398 21.6032 35.5398 21.6032C35.5398 21.6032 35.4435 21.2141 35.8768 20.831C36.3102 20.454 36.9903 20.5331 37.0685 21.0438C37.1467 21.5545 36.6352 22.1322 36.1296 21.9984C36.1296 21.9984 35.3953 23.0321 34.8537 23.555C34.312 24.0839 33.9268 24.844 33.4573 25.4216C32.9879 26.0053 32.3981 26.8505 32.3981 26.8505C32.3981 26.8505 33.4995 26.133 33.8486 25.7803C33.8486 25.7803 33.5777 25.2331 34.1134 24.9595C34.649 24.6798 34.9801 24.6555 35.1004 24.9291C35.2148 25.1966 35.1305 25.683 34.8236 25.835C34.5106 25.9871 34.1495 25.9627 34.1495 25.9627C34.1495 25.9627 33.5657 26.5221 33.3129 26.8079C33.0601 27.0937 32.8314 27.4706 32.8314 27.4706C32.8314 27.4706 34.0171 26.9781 34.4023 26.6316C34.7875 26.285 37.9954 24.2177 38.5431 23.6158C38.5431 23.6158 38.4407 22.8071 38.85 22.5517C39.2653 22.2963 39.7287 22.1687 40.1199 22.5274C40.5051 22.8861 40.5894 23.6036 40.144 23.8164C39.6986 24.0292 38.8259 23.8711 38.8259 23.8711C38.8259 23.8711 36.6412 25.7013 36.1778 26.0357C35.7143 26.3701 34.2879 27.2761 33.9268 27.501C33.9268 27.501 34.7032 27.5132 35.0944 27.3794C35.0944 27.3794 35.1907 26.814 35.5759 26.7167C35.9611 26.6194 36.6653 26.5768 36.6051 27.1484C36.5509 27.7199 35.7504 28.0726 35.3351 27.878L34.6791 28.3827C34.6791 28.3827 35.6481 28.2246 36.3102 27.9267C36.9722 27.6287 37.6884 27.0754 37.6884 27.0754C37.6884 27.0754 37.5199 26.3823 37.8268 26.0235C38.1338 25.6648 38.6875 25.2635 39.3315 25.5858C39.825 25.829 40.2162 26.06 40.3125 26.4066C40.9024 25.6952 42.738 23.5793 44.658 22.5091C46.9872 21.208 50.3636 20.7337 51.4108 19.5541C52.4581 18.3746 52.9275 16.4775 51.7599 11.516C50.5983 6.54847 47.2159 5.83708 45.1214 3.47186C43.0269 1.10664 42.2084 -0.19454 41.1612 0.04259C40.1139 0.27972 38.3685 1.81803 37.2009 1.69642C36.0393 1.57482 32.8916 -0.0790152 30.6768 0.27364C28.4679 0.632375 26.873 3.46578 24.8929 4.06164C22.9128 4.65143 20.2345 6.07421 18.7238 8.08069C17.2071 10.0933 16.9784 11.2728 18.7238 14.1123L27.1799 22.5456L27.1619 22.5335Z" fill="#6C8573"/>
<path d="M26.7408 42.0511C25.9945 42.3733 25.2903 42.0511 24.9894 41.6194C24.6644 41.1451 24.8449 40.5553 25.3023 39.8074C25.7537 39.0596 26.6264 37.801 27.1199 37.0652C27.6135 36.3235 28.6848 34.852 29.1542 34.4872C29.1542 34.4872 29.2144 33.9157 28.4922 34.5359C27.776 35.156 27.2102 35.5938 26.7227 36.2931C26.2352 36.9923 25.2662 38.105 24.9051 38.5427C24.544 38.9744 24.2972 39.473 24.2972 39.473C24.2972 39.473 24.7968 39.8926 24.5741 40.4763C24.3514 41.06 23.9361 41.3153 23.3824 41.0113C22.8227 40.7073 22.299 40.1966 22.7926 39.7041C23.2861 39.2116 23.6171 39.1873 24.0264 39.1751C24.0264 39.1751 24.2491 38.8407 24.8208 38.1171C25.3926 37.3936 26.2472 36.4633 26.5722 36.0255C26.8912 35.5877 27.2644 35.1135 27.2644 35.1135C27.2644 35.1135 26.8491 35.1256 26.6264 35.004C26.6264 35.004 25.9283 35.5026 25.3023 36.0559C24.6764 36.6092 23.6954 37.3449 23.3463 37.6976C23.3463 37.6976 23.5509 38.3968 23.2139 38.713C22.8708 39.0292 22.1125 38.9319 21.8898 38.561C21.6671 38.1901 21.4865 37.576 22.0824 37.4361C22.6782 37.2963 23.1477 37.4179 23.1477 37.4179C23.1477 37.4179 24.5741 36.2566 25.0495 35.8492C25.525 35.4357 26.3917 34.6757 26.3917 34.6757C26.3917 34.6757 26.2653 34.4447 25.8681 34.6271C25.4648 34.8034 24.237 35.0831 23.3463 35.5087C22.4555 35.9343 20.6921 36.4451 20.6921 36.4451C20.6921 36.4451 20.8365 37.0105 20.4212 37.3085C19.9999 37.6064 18.9467 37.5881 18.6578 37.12C18.3689 36.6579 18.6217 36.1593 19.2055 36.0559C19.7953 35.9526 20.5777 36.135 20.5777 36.135C20.5777 36.135 21.8236 35.7762 22.4314 35.5513C23.0393 35.3263 24.4356 34.8338 24.9532 34.6757C25.4708 34.5176 26.169 34.2683 26.169 34.2683C26.169 34.2683 25.8681 33.8853 26.0366 33.6238C26.0366 33.6238 24.7486 33.9765 24.1708 34.2501C23.593 34.5176 22.6421 34.7608 22.6421 34.7608C22.6421 34.7608 22.4014 35.6729 21.6189 35.4905C20.8305 35.308 20.4513 34.7 20.7101 34.3778C20.9689 34.0494 21.5347 33.8609 22.1125 34.0494C22.5277 34.1832 22.6 34.3413 22.612 34.4203C22.6902 34.3899 22.8287 34.3413 23.0694 34.2683C23.9301 34.0069 24.6644 33.7637 25.0977 33.6299C25.531 33.5022 26.7528 33.0097 27.0417 32.7726C27.3306 32.5355 27.1621 32.2983 26.5602 32.274C25.9523 32.2497 25.2843 32.3348 24.3032 32.578C23.3222 32.8212 22.3291 32.8942 21.4986 32.9915C20.662 33.0948 20.3129 33.2408 20.3129 33.2408C20.3129 33.2408 20.6319 33.7515 20.2527 34.0616C19.8735 34.3656 19.1633 34.2014 18.6457 33.9035C18.1281 33.6056 18.1281 32.651 18.6457 32.4929C19.1633 32.3348 19.7652 32.4017 20.2347 32.7361C20.2347 32.7361 21.7875 32.7179 22.6782 32.5476C23.5629 32.3713 25.2421 32.1342 25.6213 32.0369C26.0065 31.9396 26.4338 31.8484 26.4338 31.8484C26.4338 31.8484 24.7366 31.7572 23.4426 31.897C22.1486 32.0369 20.5777 31.9274 19.9097 32.0126C19.2416 32.0977 18.2967 31.8909 18.2967 31.8909C18.2967 31.8909 18.5133 32.3044 17.8994 32.5233C17.2916 32.7483 16.4068 32.426 16.5152 31.7815C16.6295 31.137 16.9425 30.9485 17.4601 31.0397C17.9777 31.1309 18.399 31.4957 18.399 31.4957C18.399 31.4957 19.1934 31.6356 20.9449 31.6599C22.6963 31.6781 23.9842 31.5383 24.556 31.5565C25.1218 31.5748 26.3736 31.4228 26.3736 31.4228L26.2352 31.064L25.8259 31.0762C25.8259 31.0762 25.525 31.3924 25.1398 31.2829C24.7486 31.1735 24.3574 30.8512 24.3574 30.8512C24.3574 30.8512 23.3704 30.6749 22.7986 30.6567C22.2268 30.6384 20.9388 30.535 20.9388 30.535C20.9388 30.535 20.8004 31.0944 20.2828 31.0397C19.7592 30.9911 19.055 30.8208 19.2115 30.1459C19.368 29.471 20.2407 29.1305 20.8666 30.0243C20.8666 30.0243 22.0523 30.2371 22.8828 30.4256C23.7074 30.6141 24.4537 30.5411 24.4537 30.5411C24.4537 30.5411 24.4417 30.1277 24.7366 30.0912C24.7366 30.0912 23.7014 29.9513 22.925 29.7264C22.1486 29.5014 19.6027 28.638 19.1032 28.4678C19.1032 28.4678 18.6036 28.7535 17.8934 28.6258C17.1772 28.4982 16.2082 27.501 16.9064 26.9963C17.6045 26.4978 17.9235 26.5525 18.5976 26.8869C19.2777 27.2152 19.2055 27.6165 19.2958 28.0482C19.2958 28.0482 20.7161 28.5894 21.4685 28.9299C22.2268 29.2704 23.906 29.4832 24.6523 29.6595C25.3986 29.8358 26.3556 29.9635 26.3556 29.9635C26.3556 29.9635 26.7167 29.5318 26.9574 29.5318C26.9574 29.5318 26.2894 29.3737 25.4949 29.2339C24.7065 29.094 22.8588 28.4313 22.8588 28.4313C22.8588 28.4313 22.5157 28.7839 21.95 28.7231C21.3902 28.6684 20.9328 28.0057 21.2398 27.6408C21.5467 27.2821 22.6782 27.3551 22.8828 28.0543C22.8828 28.0543 24.2731 28.5103 24.8931 28.7049C25.513 28.8995 26.9093 29.1062 26.9093 29.1062L27.0357 28.8387L26.6505 28.6866C26.6505 28.6866 26.3556 28.9663 25.8259 28.7474C25.2903 28.5286 25.1699 28.0482 25.4107 27.8415C25.4107 27.8415 24.3273 27.2335 23.4305 26.7835C22.5277 26.3336 22.1726 26.1937 22.1726 26.1937C22.1726 26.1937 21.9078 26.7653 21.1374 26.7592C20.361 26.747 19.4823 26.4248 19.4402 25.4641C19.4041 24.5034 20.0541 23.792 21.1374 24.1508C22.2208 24.5095 22.4435 25.0871 22.281 25.8046C22.281 25.8046 22.7023 26.0357 23.6833 26.5038C24.6643 26.972 25.5732 27.6287 25.5732 27.6287C25.5732 27.6287 25.8259 27.1301 26.2232 27.1605C26.6264 27.1909 27.0357 27.428 26.9334 27.7807C26.9334 27.7807 27.0598 28.0117 27.2523 27.8415C27.4449 27.6652 27.4449 27.422 27.4449 27.422C27.4449 27.422 26.9514 26.5038 25.9222 25.6161C24.8931 24.7284 23.6051 24.1265 23.6051 24.1265C23.6051 24.1265 22.8287 24.6068 22.275 24.2602C21.7213 23.9136 21.2037 23.1171 21.8055 22.4787C22.4074 21.8403 22.8588 22.0409 23.3884 22.3024C23.918 22.5638 24.237 23.0746 23.9842 23.8224C23.9842 23.8224 25.1639 24.5703 25.844 25.1054C26.5301 25.6404 27.0417 25.9809 27.0417 25.9809C27.0417 25.9809 26.4097 24.6676 25.9523 24.0048C25.4949 23.3421 24.9232 22.6186 24.9232 22.6186C24.9232 22.6186 24.4176 22.9408 24.0685 22.5881C23.7194 22.2355 23.8699 21.8464 24.225 21.6639C24.5861 21.4815 25.2482 21.6396 25.1699 22.3267C25.1699 22.3267 25.7176 23.1719 26.2412 23.9258C26.7648 24.6798 27.3366 25.8593 27.5111 26.0174C27.6857 26.1755 27.9565 26.0539 27.9565 26.0539C27.9565 26.0539 27.3968 25.0385 27.2283 24.3514C27.1922 24.1994 27.1681 23.9866 27.1561 23.7495C26.3134 22.8496 25.5491 21.8403 24.863 20.9951C23.2319 18.9826 22.5338 18.9826 21.1374 18.0401C19.7411 17.0916 19.8555 16.1492 17.4119 14.4892C14.9684 12.8354 9.68405 13.3097 6.54234 14.1366C3.39461 14.9635 2.15478 19.6939 1.45662 20.4053C0.758462 21.1167 -0.288775 21.2323 0.0603043 21.822C1.03532 23.4698 1.42051 26.3153 1.30616 27.501C1.1918 28.6806 1.61912 31.1674 2.08255 32.1159C2.54599 33.0584 1.53486 34.5419 3.9423 34.6392C6.35576 34.7365 10.1535 32.9428 11.3211 33.0584C12.4887 33.1739 14.4688 32.5841 15.7448 32.8212C17.0267 33.0584 17.9596 34.0008 17.9596 34.0008H12.6031C9.45534 34.0008 7.70995 34.2379 5.4951 35.1864C3.28026 36.135 4.68259 38.0259 3.62934 38.7373C2.5821 39.4487 2.34737 40.3911 1.99829 43.1151C1.64922 45.833 0.951057 47.2558 0.951057 48.0827C0.951057 48.9096 0.0181741 49.3838 1.41449 50.0952C2.81081 50.8066 4.09277 53.2874 7.23448 53.8832C10.3822 54.473 12.4767 53.8832 13.4096 53.9988C14.3424 54.1143 15.6244 53.8832 16.786 54.5946C17.9536 55.2999 18.7661 55.2999 20.5115 54.4791C22.2569 53.6522 22.7264 50.8127 23.0754 48.6846C23.4245 46.5565 24.8208 44.6656 25.6394 43.6015C26.0607 43.0543 26.4459 42.5071 26.7227 42.1058L26.7408 42.0511Z" fill="#6C8573"/>
<path d="M42.1964 41.5343C41.5524 41.0661 40.9265 39.9352 40.4028 38.7373C40.1139 39.0778 39.6686 39.2542 39.1028 38.9927C38.2301 38.5914 38.3926 38.1172 38.3264 37.5699C38.3264 37.5699 37.851 37.0288 37.1648 36.4937C36.4787 35.9587 35.9972 35.3689 35.1065 34.2562C34.625 33.6542 34.0773 32.9064 34.0773 32.9064C34.0773 32.9064 34.0291 33.6421 33.5356 33.9279C33.5356 33.9279 34.3722 34.2866 34.5467 34.6879C34.7213 35.0892 34.5889 35.606 34.2037 35.7459C33.8125 35.8857 32.6629 35.4297 32.9759 34.5784C32.9759 34.5784 32.7171 34.4082 32.7171 34.6575C32.7171 34.9068 33.4092 36.3174 33.8787 37.3936C34.3481 38.4698 34.9199 39.8987 34.9199 39.8987C34.9199 39.8987 35.5759 39.6433 36.2139 40.2088C36.8519 40.7803 36.7255 41.5039 36.2019 41.6984C35.6782 41.8991 34.5708 41.6984 34.5407 40.9445C34.5046 40.1905 34.5407 39.9534 34.5407 39.9534C34.5407 39.9534 33.7523 38.1536 33.4995 37.4848C33.2467 36.816 32.1694 34.5541 32.1694 34.5541C32.1694 34.5541 32.1333 35.2534 32.4583 36.6761C32.7833 38.0989 32.9097 39.2846 32.9217 39.6615C32.9398 40.0385 32.9939 40.6709 32.9939 40.6709C32.9939 40.6709 33.6861 40.9202 33.8426 41.4431C33.993 41.966 33.8185 42.7686 33.0902 42.7199C32.362 42.6713 31.4652 42.2213 31.7421 41.5282C32.0249 40.829 32.4222 40.6526 32.4222 40.6526C32.4222 40.6526 32.6088 39.321 32.4101 38.1232C32.2055 36.9254 31.724 34.5237 31.724 34.5237C31.724 34.5237 31.2606 34.3596 31.1643 34.4629C31.062 34.5724 31.3208 34.9858 31.1643 35.375C31.0138 35.7641 30.8453 35.8127 30.8453 35.8127C30.8453 35.8127 30.8995 37.1504 30.9476 37.8192C30.9958 38.4881 31.086 39.1265 31.086 39.1265C31.086 39.1265 31.7782 39.3758 32.0009 39.7467C32.2236 40.1176 32.1453 40.8107 31.5916 40.9566C31.1101 41.0843 30.0569 40.8654 29.9184 40.4277C29.9184 40.4641 29.9184 40.4945 29.9184 40.531C29.8583 40.8958 29.6115 41.3458 29.1601 41.1451C28.7027 40.9384 28.4318 40.148 28.7328 39.8257C29.0337 39.5035 29.3527 39.315 29.3527 39.315C29.3527 39.315 29.2143 37.9651 29.2022 37.3024C29.1962 36.6397 29.2444 35.6486 29.2444 35.6486C29.2444 35.6486 29.0397 35.4054 28.7749 35.527C28.5101 35.6486 27.7879 36.512 27.3425 37.2173C26.8911 37.9226 26.3675 38.6218 26.1688 39.0414C25.9763 39.4609 25.7596 40.002 25.7596 40.002C25.7596 40.002 26.4878 39.8014 26.9814 40.2574C27.4568 40.7013 27.7156 41.4127 27.0175 41.893C26.4337 43.5833 25.1096 45.6506 24.261 47.9125C23.3281 50.3932 23.3281 53.3543 24.8448 55.1236C26.3614 56.8991 30.6708 57.8415 33 58.2003C35.3292 58.559 39.0547 59.8541 39.9876 59.9757C40.9204 60.0912 40.9204 59.5014 41.3839 57.9631C41.8533 56.4248 43.2496 54.4183 44.1825 54.0596C45.1154 53.7069 44.8807 52.4058 45.6932 51.9315C46.5057 51.4572 47.7877 50.0405 46.7404 48.028C45.6932 46.0154 43.8274 42.7078 42.1964 41.5221V41.5343Z" fill="#6C8573"/>
<path d="M63.743 29.0819C61.8832 27.9753 62.1119 26.7532 59.8971 25.2148C57.6822 23.6765 57.1045 21.0742 53.2586 20.9587C49.4127 20.8431 47.7816 21.6701 46.271 22.7341C44.8265 23.7495 41.8112 26.0418 40.3126 26.5707C40.3126 26.6255 40.3126 26.6802 40.2945 26.7471C40.1621 27.3004 39.5602 27.9449 38.0857 27.4767C38.0857 27.4767 37.7847 27.5253 37.0083 28.0118C36.2319 28.4921 35.0463 28.9907 35.0463 28.9907C35.0463 28.9907 35.1065 29.3312 35.588 29.4163C36.0634 29.5014 37.3695 28.7779 38.3084 28.5711C39.2412 28.3644 40.6195 27.9449 40.6195 27.9449C40.6195 27.9449 40.9927 27.4281 41.4802 27.4341C41.9677 27.4341 42.5334 27.7078 42.4311 28.3097C42.3288 28.9116 42.088 29.1184 41.4079 29.0393C40.7278 28.9603 40.4931 28.4191 40.4931 28.4191C40.4931 28.4191 39.2653 28.6563 38.7056 28.8508C38.1459 29.0393 36.6171 29.5987 36.1898 29.7264C35.9792 29.7872 35.7505 29.8784 35.5699 29.9514C35.7505 29.9027 35.9912 29.8784 36.2741 29.9514C36.9 30.1034 36.9361 30.608 36.9361 30.608C36.9361 30.608 38.0074 30.304 38.9584 30.225C39.9093 30.1459 41.113 30.0669 41.113 30.0669C41.113 30.0669 41.3899 29.4102 41.8473 29.3677C42.3047 29.3251 42.72 29.2704 43.0631 29.6656C43.4061 30.0608 43.2797 30.5351 42.7982 30.7418C42.3107 30.9485 41.739 30.7175 41.2454 30.5047C41.2454 30.5047 39.7588 30.6141 39.0547 30.6567C38.3505 30.6992 36.9241 30.9424 36.9241 30.9424L36.7255 31.362C36.7255 31.362 37.3334 31.3863 38.194 31.3741C39.0547 31.362 41.6968 31.666 42.2987 31.7329C42.9006 31.7998 43.7733 32.0369 43.7733 32.0369C43.7733 32.0369 44.1584 31.441 44.7001 31.4106C45.2358 31.3802 45.8136 31.5687 45.8798 32.1159C45.952 32.6692 45.5849 33.1435 45.0191 33.0827C44.4534 33.0219 43.7853 32.4078 43.7853 32.4078C43.7853 32.4078 42.3769 31.9518 41.4621 31.8302C40.5413 31.7086 38.2662 31.6782 38.2662 31.6782C38.2662 31.6782 39.7709 31.9457 40.1982 32.0612C40.6255 32.1828 41.0649 32.2558 41.0649 32.2558C41.0649 32.2558 41.3538 32.0187 41.9316 32.2011C42.5093 32.3835 42.7802 32.724 42.7922 33.1435C42.8043 33.557 42.2084 33.9096 41.5644 33.6299C40.9204 33.3502 40.8663 32.7179 40.8663 32.7179C40.8663 32.7179 39.8792 32.499 39.2112 32.3835C38.5371 32.2619 36.9121 31.9761 36.9121 31.9761C36.9121 31.9761 37.1227 32.426 36.8458 32.8334C36.8458 32.8334 37.5801 33.3381 38.3686 33.7272C39.157 34.1163 39.4218 34.2015 39.4218 34.2015C39.4218 34.2015 40.0176 33.5995 40.6315 33.5874C41.2454 33.5752 41.8232 33.5509 42.1843 34.2744C42.5515 35.0041 42.088 35.7884 41.5343 35.6911C40.9806 35.5938 40.1079 35.4358 39.5 34.7061C39.5 34.7061 38.838 34.3048 38.2723 34.0373C37.7065 33.7698 36.6171 33.2043 36.6171 33.2043C36.6171 33.2043 36.3042 33.6056 35.919 33.4536C35.5398 33.3016 35.0282 32.9185 35.0583 32.5112L34.625 32.1889L34.312 32.5902C34.312 32.5902 34.7754 33.2225 35.3292 33.8488C36.2139 34.8521 36.5329 35.527 37.3033 36.0377C38.0676 36.5484 38.6033 37.2659 38.6033 37.2659C38.6033 37.2659 39.1389 36.8889 39.7167 36.9741C39.3135 35.831 39.0607 34.9372 39.0607 34.9372C39.0607 34.9372 39.4579 35.8918 40.0899 37.0653C40.5352 37.2294 40.8723 37.5578 40.7459 38.0989C40.7399 38.1232 40.7278 38.1536 40.7218 38.178C41.2635 39.0778 41.8955 39.9777 42.5575 40.6101C44.4233 42.3855 45.6992 44.392 46.283 45.8148C46.8668 47.2315 46.9812 49.1285 48.7266 49.244C50.472 49.3656 51.9886 50.1926 55.1304 48.2955C58.2781 46.4045 59.211 47.2315 61.1851 45.456C63.1652 43.6806 65.4944 42.1423 65.8435 40.1358C66.1926 38.1232 65.368 32.5659 65.9578 30.5533C66.3069 29.3737 64.4592 29.5197 63.743 29.094V29.0819Z" fill="#6C8573"/>
<path d="M28.3236 24.8014C28.0648 24.5885 27.812 24.3636 27.5713 24.1204C27.6736 24.7831 27.8843 25.3668 28.2514 25.8168C28.2514 25.8168 28.2755 25.3182 28.3296 24.7953L28.3236 24.8014Z" fill="#6C8573"/>
</g>
<defs>
<clipPath id="clip0_39_935">
<rect width="66" height="60" fill="white"/>
</clipPath>
</defs>
</svg>
