<svg width="70" height="71" viewBox="0 0 70 71" fill="none" xmlns="http://www.w3.org/2000/svg">
<path d="M16.4656 29.968C13.5216 29.968 10.8656 29.328 8.49763 28.048C6.12963 26.704 4.20963 24.944 2.73763 22.768C1.32963 20.528 0.625625 18.064 0.625625 15.376C0.625625 12.688 1.32963 10.256 2.73763 8.08C4.20963 5.84 6.12963 4.08 8.49763 2.8C10.8656 1.52 13.5216 0.879997 16.4656 0.879997C19.4096 0.879997 22.0656 1.52 24.4336 2.8C26.8656 4.08 28.7856 5.84 30.1936 8.08C31.6016 10.256 32.3056 12.688 32.3056 15.376C32.3056 18.064 31.6016 20.528 30.1936 22.768C28.7856 24.944 26.8656 26.704 24.4336 28.048C22.0656 29.328 19.4096 29.968 16.4656 29.968ZM16.4656 23.536C17.7456 23.536 18.8976 23.152 19.9216 22.384C20.9456 21.616 21.7456 20.624 22.3216 19.408C22.9616 18.192 23.2816 16.88 23.2816 15.472C23.2816 13.936 22.9616 12.56 22.3216 11.344C21.6816 10.128 20.8496 9.168 19.8256 8.464C18.8016 7.696 17.6816 7.31199 16.4656 7.31199C15.1856 7.31199 14.0336 7.696 13.0096 8.464C11.9856 9.168 11.1536 10.128 10.5136 11.344C9.93763 12.56 9.64963 13.904 9.64963 15.376C9.64963 16.848 9.96963 18.224 10.6096 19.504C11.2496 20.72 12.0816 21.712 13.1056 22.48C14.1296 23.184 15.2496 23.536 16.4656 23.536ZM53.5216 70.96C50.5776 70.96 47.9216 70.32 45.5536 69.04C43.1856 67.76 41.2656 66.032 39.7936 63.856C38.3856 61.616 37.6816 59.152 37.6816 56.464C37.6816 53.712 38.3856 51.248 39.7936 49.072C41.2656 46.896 43.1856 45.168 45.5536 43.888C47.9216 42.544 50.5776 41.872 53.5216 41.872C56.4656 41.872 59.1216 42.544 61.4896 43.888C63.9216 45.168 65.8416 46.896 67.2496 49.072C68.6576 51.248 69.3616 53.68 69.3616 56.368C69.3616 59.056 68.6576 61.52 67.2496 63.76C65.8416 65.936 63.9216 67.696 61.4896 69.04C59.1216 70.32 56.4656 70.96 53.5216 70.96ZM53.5216 64.528C54.8016 64.528 55.9536 64.144 56.9776 63.376C58.0016 62.608 58.8016 61.616 59.3776 60.4C60.0176 59.184 60.3376 57.872 60.3376 56.464C60.3376 54.928 60.0176 53.552 59.3776 52.336C58.8016 51.12 57.9696 50.16 56.8816 49.456C55.8576 48.688 54.7376 48.304 53.5216 48.304C52.3056 48.304 51.1536 48.688 50.0656 49.456C49.0416 50.16 48.2096 51.152 47.5696 52.432C46.9936 53.648 46.7056 54.96 46.7056 56.368C46.7056 57.904 47.0256 59.28 47.6656 60.496C48.3056 61.712 49.1376 62.704 50.1616 63.472C51.1856 64.176 52.3056 64.528 53.5216 64.528ZM6.09763 65.488L33.0736 33.904L58.0336 1.07199L63.8896 6.256L37.5856 37.36L11.8576 70.672L6.09763 65.488Z" fill="#6C8573"/>
</svg>
